#Cube.obj
#Wednesday, 24 June 2020
#16:17:39
#-------

#Cube
#-------
g Cube
v 175 -0.5 -75
v -175 -0.5 -75
v 175 0.5 -75
v -175 0.5 -75
v 175 0.5 75
v -175 0.5 75
v 175 -0.5 75
v -175 -0.5 75
v 175 0.5 -75
v -175 0.5 -75
v 175 0.5 75
v -175 0.5 75
v 175 -0.5 75
v 175 -0.5 -75
v -175 -0.5 -75
v -175 -0.5 75
v -175 -0.5 -75
v -175 0.5 -75
v -175 0.5 75
v -175 -0.5 75
v 175 -0.5 75
v 175 0.5 75
v 175 0.5 -75
v 175 -0.5 -75

vn 0 0 1
vn 0 0 1
vn 0 0 1
vn 0 0 1
vn 0 -1 0
vn 0 -1 0
vn 0 0 -1
vn 0 0 -1
vn 0 -1 0
vn 0 -1 0
vn 0 0 -1
vn 0 0 -1
vn 0 1 0
vn 0 1 0
vn 0 1 0
vn 0 1 0
vn 1 0 0
vn 1 0 0
vn 1 0 0
vn 1 0 0
vn -1 0 0
vn -1 0 0
vn -1 0 0
vn -1 0 0

vt 0 0
vt 1 0
vt 0 1
vt 1 1
vt 0 1
vt 1 1
vt 0 1
vt 1 1
vt 0 0
vt 1 0
vt 0 0
vt 1 0
vt 0 0
vt 0 1
vt 1 1
vt 1 0
vt 0 0
vt 0 1
vt 1 1
vt 1 0
vt 0 0
vt 0 1
vt 1 1
vt 1 0

usemtl Default-Material
usemap Default-Material
f 1/1/1 3/3/3 4/4/4
f 1/1/1 4/4/4 2/2/2
f 9/9/9 5/5/5 6/6/6
f 9/9/9 6/6/6 10/10/10
f 11/11/11 7/7/7 8/8/8
f 11/11/11 8/8/8 12/12/12
f 13/13/13 14/14/14 15/15/15
f 13/13/13 15/15/15 16/16/16
f 17/17/17 18/18/18 19/19/19
f 17/17/17 19/19/19 20/20/20
f 21/21/21 22/22/22 23/23/23
f 21/21/21 23/23/23 24/24/24
#Cube (5)
#-------
g Cube (5)
v 174.2 -0.6000004 17.5
v 144.2 -0.6000004 17.5
v 174.2 19.4 17.5
v 144.2 19.4 17.5
v 174.2 19.4 27.5
v 144.2 19.4 27.5
v 174.2 -0.6000004 27.5
v 144.2 -0.6000004 27.5
v 174.2 19.4 17.5
v 144.2 19.4 17.5
v 174.2 19.4 27.5
v 144.2 19.4 27.5
v 174.2 -0.6000004 27.5
v 174.2 -0.6000004 17.5
v 144.2 -0.6000004 17.5
v 144.2 -0.6000004 27.5
v 144.2 -0.6000004 17.5
v 144.2 19.4 17.5
v 144.2 19.4 27.5
v 144.2 -0.6000004 27.5
v 174.2 -0.6000004 27.5
v 174.2 19.4 27.5
v 174.2 19.4 17.5
v 174.2 -0.6000004 17.5

vn 0 0 1
vn 0 0 1
vn 0 0 1
vn 0 0 1
vn 0 -1 0
vn 0 -1 0
vn 0 0 -1
vn 0 0 -1
vn 0 -1 0
vn 0 -1 0
vn 0 0 -1
vn 0 0 -1
vn 0 1 0
vn 0 1 0
vn 0 1 0
vn 0 1 0
vn 1 0 0
vn 1 0 0
vn 1 0 0
vn 1 0 0
vn -1 0 0
vn -1 0 0
vn -1 0 0
vn -1 0 0

vt 0 0
vt 1 0
vt 0 1
vt 1 1
vt 0 1
vt 1 1
vt 0 1
vt 1 1
vt 0 0
vt 1 0
vt 0 0
vt 1 0
vt 0 0
vt 0 1
vt 1 1
vt 1 0
vt 0 0
vt 0 1
vt 1 1
vt 1 0
vt 0 0
vt 0 1
vt 1 1
vt 1 0

usemtl Default-Material
usemap Default-Material
f 25/25/25 27/27/27 28/28/28
f 25/25/25 28/28/28 26/26/26
f 33/33/33 29/29/29 30/30/30
f 33/33/33 30/30/30 34/34/34
f 35/35/35 31/31/31 32/32/32
f 35/35/35 32/32/32 36/36/36
f 37/37/37 38/38/38 39/39/39
f 37/37/37 39/39/39 40/40/40
f 41/41/41 42/42/42 43/43/43
f 41/41/41 43/43/43 44/44/44
f 45/45/45 46/46/46 47/47/47
f 45/45/45 47/47/47 48/48/48
#Cube (6)
#-------
g Cube (6)
v 90.2 -0.6000004 17.5
v 0.2000004 -0.6000004 17.5
v 90.2 19.4 17.5
v 0.2000004 19.4 17.5
v 90.2 19.4 27.5
v 0.2000004 19.4 27.5
v 90.2 -0.6000004 27.5
v 0.2000004 -0.6000004 27.5
v 90.2 19.4 17.5
v 0.2000004 19.4 17.5
v 90.2 19.4 27.5
v 0.2000004 19.4 27.5
v 90.2 -0.6000004 27.5
v 90.2 -0.6000004 17.5
v 0.2000004 -0.6000004 17.5
v 0.2000004 -0.6000004 27.5
v 0.2000004 -0.6000004 17.5
v 0.2000004 19.4 17.5
v 0.2000004 19.4 27.5
v 0.2000004 -0.6000004 27.5
v 90.2 -0.6000004 27.5
v 90.2 19.4 27.5
v 90.2 19.4 17.5
v 90.2 -0.6000004 17.5

vn 0 0 1
vn 0 0 1
vn 0 0 1
vn 0 0 1
vn 0 -1 0
vn 0 -1 0
vn 0 0 -1
vn 0 0 -1
vn 0 -1 0
vn 0 -1 0
vn 0 0 -1
vn 0 0 -1
vn 0 1 0
vn 0 1 0
vn 0 1 0
vn 0 1 0
vn 1 0 0
vn 1 0 0
vn 1 0 0
vn 1 0 0
vn -1 0 0
vn -1 0 0
vn -1 0 0
vn -1 0 0

vt 0 0
vt 1 0
vt 0 1
vt 1 1
vt 0 1
vt 1 1
vt 0 1
vt 1 1
vt 0 0
vt 1 0
vt 0 0
vt 1 0
vt 0 0
vt 0 1
vt 1 1
vt 1 0
vt 0 0
vt 0 1
vt 1 1
vt 1 0
vt 0 0
vt 0 1
vt 1 1
vt 1 0

usemtl Default-Material
usemap Default-Material
f 49/49/49 51/51/51 52/52/52
f 49/49/49 52/52/52 50/50/50
f 57/57/57 53/53/53 54/54/54
f 57/57/57 54/54/54 58/58/58
f 59/59/59 55/55/55 56/56/56
f 59/59/59 56/56/56 60/60/60
f 61/61/61 62/62/62 63/63/63
f 61/61/61 63/63/63 64/64/64
f 65/65/65 66/66/66 67/67/67
f 65/65/65 67/67/67 68/68/68
f 69/69/69 70/70/70 71/71/71
f 69/69/69 71/71/71 72/72/72
#Cube (7)
#-------
g Cube (7)
v -62.4 -0.6000004 17.5
v -102.4 -0.6000004 17.5
v -62.4 19.4 17.5
v -102.4 19.4 17.5
v -62.4 19.4 27.5
v -102.4 19.4 27.5
v -62.4 -0.6000004 27.5
v -102.4 -0.6000004 27.5
v -62.4 19.4 17.5
v -102.4 19.4 17.5
v -62.4 19.4 27.5
v -102.4 19.4 27.5
v -62.4 -0.6000004 27.5
v -62.4 -0.6000004 17.5
v -102.4 -0.6000004 17.5
v -102.4 -0.6000004 27.5
v -102.4 -0.6000004 17.5
v -102.4 19.4 17.5
v -102.4 19.4 27.5
v -102.4 -0.6000004 27.5
v -62.4 -0.6000004 27.5
v -62.4 19.4 27.5
v -62.4 19.4 17.5
v -62.4 -0.6000004 17.5

vn 0 0 1
vn 0 0 1
vn 0 0 1
vn 0 0 1
vn 0 -1 0
vn 0 -1 0
vn 0 0 -1
vn 0 0 -1
vn 0 -1 0
vn 0 -1 0
vn 0 0 -1
vn 0 0 -1
vn 0 1 0
vn 0 1 0
vn 0 1 0
vn 0 1 0
vn 1 0 0
vn 1 0 0
vn 1 0 0
vn 1 0 0
vn -1 0 0
vn -1 0 0
vn -1 0 0
vn -1 0 0

vt 0 0
vt 1 0
vt 0 1
vt 1 1
vt 0 1
vt 1 1
vt 0 1
vt 1 1
vt 0 0
vt 1 0
vt 0 0
vt 1 0
vt 0 0
vt 0 1
vt 1 1
vt 1 0
vt 0 0
vt 0 1
vt 1 1
vt 1 0
vt 0 0
vt 0 1
vt 1 1
vt 1 0

usemtl Default-Material
usemap Default-Material
f 73/73/73 75/75/75 76/76/76
f 73/73/73 76/76/76 74/74/74
f 81/81/81 77/77/77 78/78/78
f 81/81/81 78/78/78 82/82/82
f 83/83/83 79/79/79 80/80/80
f 83/83/83 80/80/80 84/84/84
f 85/85/85 86/86/86 87/87/87
f 85/85/85 87/87/87 88/88/88
f 89/89/89 90/90/90 91/91/91
f 89/89/89 91/91/91 92/92/92
f 93/93/93 94/94/94 95/95/95
f 93/93/93 95/95/95 96/96/96
#Cube (8)
#-------
g Cube (8)
v 129.1 -0.6099997 -25.3
v 119.1 -0.6099997 -25.3
v 129.1 19.39 -25.3
v 119.1 19.39 -25.3
v 129.1 19.39 74.7
v 119.1 19.39 74.7
v 129.1 -0.6099997 74.7
v 119.1 -0.6099997 74.7
v 129.1 19.39 -25.3
v 119.1 19.39 -25.3
v 129.1 19.39 74.7
v 119.1 19.39 74.7
v 129.1 -0.6099997 74.7
v 129.1 -0.6099997 -25.3
v 119.1 -0.6099997 -25.3
v 119.1 -0.6099997 74.7
v 119.1 -0.6099997 -25.3
v 119.1 19.39 -25.3
v 119.1 19.39 74.7
v 119.1 -0.6099997 74.7
v 129.1 -0.6099997 74.7
v 129.1 19.39 74.7
v 129.1 19.39 -25.3
v 129.1 -0.6099997 -25.3

vn 0 0 1
vn 0 0 1
vn 0 0 1
vn 0 0 1
vn 0 -1 0
vn 0 -1 0
vn 0 0 -1
vn 0 0 -1
vn 0 -1 0
vn 0 -1 0
vn 0 0 -1
vn 0 0 -1
vn 0 1 0
vn 0 1 0
vn 0 1 0
vn 0 1 0
vn 1 0 0
vn 1 0 0
vn 1 0 0
vn 1 0 0
vn -1 0 0
vn -1 0 0
vn -1 0 0
vn -1 0 0

vt 0 0
vt 1 0
vt 0 1
vt 1 1
vt 0 1
vt 1 1
vt 0 1
vt 1 1
vt 0 0
vt 1 0
vt 0 0
vt 1 0
vt 0 0
vt 0 1
vt 1 1
vt 1 0
vt 0 0
vt 0 1
vt 1 1
vt 1 0
vt 0 0
vt 0 1
vt 1 1
vt 1 0

usemtl Default-Material
usemap Default-Material
f 97/97/97 99/99/99 100/100/100
f 97/97/97 100/100/100 98/98/98
f 105/105/105 101/101/101 102/102/102
f 105/105/105 102/102/102 106/106/106
f 107/107/107 103/103/103 104/104/104
f 107/107/107 104/104/104 108/108/108
f 109/109/109 110/110/110 111/111/111
f 109/109/109 111/111/111 112/112/112
f 113/113/113 114/114/114 115/115/115
f 113/113/113 115/115/115 116/116/116
f 117/117/117 118/118/118 119/119/119
f 117/117/117 119/119/119 120/120/120
#Cube (9)
#-------
g Cube (9)
v 149.9 -0.6000004 -30.3
v 49.9 -0.6000004 -30.3
v 149.9 19.4 -30.3
v 49.9 19.4 -30.3
v 149.9 19.4 -20.3
v 49.9 19.4 -20.3
v 149.9 -0.6000004 -20.3
v 49.9 -0.6000004 -20.3
v 149.9 19.4 -30.3
v 49.9 19.4 -30.3
v 149.9 19.4 -20.3
v 49.9 19.4 -20.3
v 149.9 -0.6000004 -20.3
v 149.9 -0.6000004 -30.3
v 49.9 -0.6000004 -30.3
v 49.9 -0.6000004 -20.3
v 49.9 -0.6000004 -30.3
v 49.9 19.4 -30.3
v 49.9 19.4 -20.3
v 49.9 -0.6000004 -20.3
v 149.9 -0.6000004 -20.3
v 149.9 19.4 -20.3
v 149.9 19.4 -30.3
v 149.9 -0.6000004 -30.3

vn 0 0 1
vn 0 0 1
vn 0 0 1
vn 0 0 1
vn 0 -1 0
vn 0 -1 0
vn 0 0 -1
vn 0 0 -1
vn 0 -1 0
vn 0 -1 0
vn 0 0 -1
vn 0 0 -1
vn 0 1 0
vn 0 1 0
vn 0 1 0
vn 0 1 0
vn 1 0 0
vn 1 0 0
vn 1 0 0
vn 1 0 0
vn -1 0 0
vn -1 0 0
vn -1 0 0
vn -1 0 0

vt 0 0
vt 1 0
vt 0 1
vt 1 1
vt 0 1
vt 1 1
vt 0 1
vt 1 1
vt 0 0
vt 1 0
vt 0 0
vt 1 0
vt 0 0
vt 0 1
vt 1 1
vt 1 0
vt 0 0
vt 0 1
vt 1 1
vt 1 0
vt 0 0
vt 0 1
vt 1 1
vt 1 0

usemtl Default-Material
usemap Default-Material
f 121/121/121 123/123/123 124/124/124
f 121/121/121 124/124/124 122/122/122
f 129/129/129 125/125/125 126/126/126
f 129/129/129 126/126/126 130/130/130
f 131/131/131 127/127/127 128/128/128
f 131/131/131 128/128/128 132/132/132
f 133/133/133 134/134/134 135/135/135
f 133/133/133 135/135/135 136/136/136
f 137/137/137 138/138/138 139/139/139
f 137/137/137 139/139/139 140/140/140
f 141/141/141 142/142/142 143/143/143
f 141/141/141 143/143/143 144/144/144
#Cube (10)
#-------
g Cube (10)
v 55.59999 -0.6099997 -29.9
v 45.59999 -0.6099997 -29.9
v 55.59999 19.39 -29.9
v 45.59999 19.39 -29.9
v 55.59999 19.39 20.1
v 45.59999 19.39 20.1
v 55.59999 -0.6099997 20.1
v 45.59999 -0.6099997 20.1
v 55.59999 19.39 -29.9
v 45.59999 19.39 -29.9
v 55.59999 19.39 20.1
v 45.59999 19.39 20.1
v 55.59999 -0.6099997 20.1
v 55.59999 -0.6099997 -29.9
v 45.59999 -0.6099997 -29.9
v 45.59999 -0.6099997 20.1
v 45.59999 -0.6099997 -29.9
v 45.59999 19.39 -29.9
v 45.59999 19.39 20.1
v 45.59999 -0.6099997 20.1
v 55.59999 -0.6099997 20.1
v 55.59999 19.39 20.1
v 55.59999 19.39 -29.9
v 55.59999 -0.6099997 -29.9

vn 0 0 1
vn 0 0 1
vn 0 0 1
vn 0 0 1
vn 0 -1 0
vn 0 -1 0
vn 0 0 -1
vn 0 0 -1
vn 0 -1 0
vn 0 -1 0
vn 0 0 -1
vn 0 0 -1
vn 0 1 0
vn 0 1 0
vn 0 1 0
vn 0 1 0
vn 1 0 0
vn 1 0 0
vn 1 0 0
vn 1 0 0
vn -1 0 0
vn -1 0 0
vn -1 0 0
vn -1 0 0

vt 0 0
vt 1 0
vt 0 1
vt 1 1
vt 0 1
vt 1 1
vt 0 1
vt 1 1
vt 0 0
vt 1 0
vt 0 0
vt 1 0
vt 0 0
vt 0 1
vt 1 1
vt 1 0
vt 0 0
vt 0 1
vt 1 1
vt 1 0
vt 0 0
vt 0 1
vt 1 1
vt 1 0

usemtl Default-Material
usemap Default-Material
f 145/145/145 147/147/147 148/148/148
f 145/145/145 148/148/148 146/146/146
f 153/153/153 149/149/149 150/150/150
f 153/153/153 150/150/150 154/154/154
f 155/155/155 151/151/151 152/152/152
f 155/155/155 152/152/152 156/156/156
f 157/157/157 158/158/158 159/159/159
f 157/157/157 159/159/159 160/160/160
f 161/161/161 162/162/162 163/163/163
f 161/161/161 163/163/163 164/164/164
f 165/165/165 166/166/166 167/167/167
f 165/165/165 167/167/167 168/168/168
#Cube (12)
#-------
g Cube (12)
v -14.5 -0.6000004 -30.3
v -104.5 -0.6000004 -30.3
v -14.5 19.4 -30.3
v -104.5 19.4 -30.3
v -14.5 19.4 -20.3
v -104.5 19.4 -20.3
v -14.5 -0.6000004 -20.3
v -104.5 -0.6000004 -20.3
v -14.5 19.4 -30.3
v -104.5 19.4 -30.3
v -14.5 19.4 -20.3
v -104.5 19.4 -20.3
v -14.5 -0.6000004 -20.3
v -14.5 -0.6000004 -30.3
v -104.5 -0.6000004 -30.3
v -104.5 -0.6000004 -20.3
v -104.5 -0.6000004 -30.3
v -104.5 19.4 -30.3
v -104.5 19.4 -20.3
v -104.5 -0.6000004 -20.3
v -14.5 -0.6000004 -20.3
v -14.5 19.4 -20.3
v -14.5 19.4 -30.3
v -14.5 -0.6000004 -30.3

vn 0 0 1
vn 0 0 1
vn 0 0 1
vn 0 0 1
vn 0 -1 0
vn 0 -1 0
vn 0 0 -1
vn 0 0 -1
vn 0 -1 0
vn 0 -1 0
vn 0 0 -1
vn 0 0 -1
vn 0 1 0
vn 0 1 0
vn 0 1 0
vn 0 1 0
vn 1 0 0
vn 1 0 0
vn 1 0 0
vn 1 0 0
vn -1 0 0
vn -1 0 0
vn -1 0 0
vn -1 0 0

vt 0 0
vt 1 0
vt 0 1
vt 1 1
vt 0 1
vt 1 1
vt 0 1
vt 1 1
vt 0 0
vt 1 0
vt 0 0
vt 1 0
vt 0 0
vt 0 1
vt 1 1
vt 1 0
vt 0 0
vt 0 1
vt 1 1
vt 1 0
vt 0 0
vt 0 1
vt 1 1
vt 1 0

usemtl Default-Material
usemap Default-Material
f 169/169/169 171/171/171 172/172/172
f 169/169/169 172/172/172 170/170/170
f 177/177/177 173/173/173 174/174/174
f 177/177/177 174/174/174 178/178/178
f 179/179/179 175/175/175 176/176/176
f 179/179/179 176/176/176 180/180/180
f 181/181/181 182/182/182 183/183/183
f 181/181/181 183/183/183 184/184/184
f 185/185/185 186/186/186 187/187/187
f 185/185/185 187/187/187 188/188/188
f 189/189/189 190/190/190 191/191/191
f 189/189/189 191/191/191 192/192/192
#Cube (11)
#-------
g Cube (11)
v -62.2 -0.6099997 -24.8
v -72.2 -0.6099997 -24.8
v -62.2 19.39 -24.8
v -72.2 19.39 -24.8
v -62.2 19.39 22.2
v -72.2 19.39 22.2
v -62.2 -0.6099997 22.2
v -72.2 -0.6099997 22.2
v -62.2 19.39 -24.8
v -72.2 19.39 -24.8
v -62.2 19.39 22.2
v -72.2 19.39 22.2
v -62.2 -0.6099997 22.2
v -62.2 -0.6099997 -24.8
v -72.2 -0.6099997 -24.8
v -72.2 -0.6099997 22.2
v -72.2 -0.6099997 -24.8
v -72.2 19.39 -24.8
v -72.2 19.39 22.2
v -72.2 -0.6099997 22.2
v -62.2 -0.6099997 22.2
v -62.2 19.39 22.2
v -62.2 19.39 -24.8
v -62.2 -0.6099997 -24.8

vn 0 0 1
vn 0 0 1
vn 0 0 1
vn 0 0 1
vn 0 -1 0
vn 0 -1 0
vn 0 0 -1
vn 0 0 -1
vn 0 -1 0
vn 0 -1 0
vn 0 0 -1
vn 0 0 -1
vn 0 1 0
vn 0 1 0
vn 0 1 0
vn 0 1 0
vn 1 0 0
vn 1 0 0
vn 1 0 0
vn 1 0 0
vn -1 0 0
vn -1 0 0
vn -1 0 0
vn -1 0 0

vt 0 0
vt 1 0
vt 0 1
vt 1 1
vt 0 1
vt 1 1
vt 0 1
vt 1 1
vt 0 0
vt 1 0
vt 0 0
vt 1 0
vt 0 0
vt 0 1
vt 1 1
vt 1 0
vt 0 0
vt 0 1
vt 1 1
vt 1 0
vt 0 0
vt 0 1
vt 1 1
vt 1 0

usemtl Default-Material
usemap Default-Material
f 193/193/193 195/195/195 196/196/196
f 193/193/193 196/196/196 194/194/194
f 201/201/201 197/197/197 198/198/198
f 201/201/201 198/198/198 202/202/202
f 203/203/203 199/199/199 200/200/200
f 203/203/203 200/200/200 204/204/204
f 205/205/205 206/206/206 207/207/207
f 205/205/205 207/207/207 208/208/208
f 209/209/209 210/210/210 211/211/211
f 209/209/209 211/211/211 212/212/212
f 213/213/213 214/214/214 215/215/215
f 213/213/213 215/215/215 216/216/216
#Cube (1)
#-------
g Cube (1)
v 179.52 -0.6099997 -80.00001
v 169.52 -0.6099997 -80.00001
v 179.52 19.39 -80.00001
v 169.52 19.39 -80.00001
v 179.52 19.39 80.00001
v 169.52 19.39 80.00001
v 179.52 -0.6099997 80.00001
v 169.52 -0.6099997 80.00001
v 179.52 19.39 -80.00001
v 169.52 19.39 -80.00001
v 179.52 19.39 80.00001
v 169.52 19.39 80.00001
v 179.52 -0.6099997 80.00001
v 179.52 -0.6099997 -80.00001
v 169.52 -0.6099997 -80.00001
v 169.52 -0.6099997 80.00001
v 169.52 -0.6099997 -80.00001
v 169.52 19.39 -80.00001
v 169.52 19.39 80.00001
v 169.52 -0.6099997 80.00001
v 179.52 -0.6099997 80.00001
v 179.52 19.39 80.00001
v 179.52 19.39 -80.00001
v 179.52 -0.6099997 -80.00001

vn 0 0 1
vn 0 0 1
vn 0 0 1
vn 0 0 1
vn 0 -1 0
vn 0 -1 0
vn 0 0 -1
vn 0 0 -1
vn 0 -1 0
vn 0 -1 0
vn 0 0 -1
vn 0 0 -1
vn 0 1 0
vn 0 1 0
vn 0 1 0
vn 0 1 0
vn 1 0 0
vn 1 0 0
vn 1 0 0
vn 1 0 0
vn -1 0 0
vn -1 0 0
vn -1 0 0
vn -1 0 0

vt 0 0
vt 1 0
vt 0 1
vt 1 1
vt 0 1
vt 1 1
vt 0 1
vt 1 1
vt 0 0
vt 1 0
vt 0 0
vt 1 0
vt 0 0
vt 0 1
vt 1 1
vt 1 0
vt 0 0
vt 0 1
vt 1 1
vt 1 0
vt 0 0
vt 0 1
vt 1 1
vt 1 0

usemtl Default-Material
usemap Default-Material
f 217/217/217 219/219/219 220/220/220
f 217/217/217 220/220/220 218/218/218
f 225/225/225 221/221/221 222/222/222
f 225/225/225 222/222/222 226/226/226
f 227/227/227 223/223/223 224/224/224
f 227/227/227 224/224/224 228/228/228
f 229/229/229 230/230/230 231/231/231
f 229/229/229 231/231/231 232/232/232
f 233/233/233 234/234/234 235/235/235
f 233/233/233 235/235/235 236/236/236
f 237/237/237 238/238/238 239/239/239
f 237/237/237 239/239/239 240/240/240
#Cube (2)
#-------
g Cube (2)
v -169.52 -0.6099997 -80.00001
v -179.52 -0.6099997 -80.00001
v -169.52 19.39 -80.00001
v -179.52 19.39 -80.00001
v -169.52 19.39 80.00001
v -179.52 19.39 80.00001
v -169.52 -0.6099997 80.00001
v -179.52 -0.6099997 80.00001
v -169.52 19.39 -80.00001
v -179.52 19.39 -80.00001
v -169.52 19.39 80.00001
v -179.52 19.39 80.00001
v -169.52 -0.6099997 80.00001
v -169.52 -0.6099997 -80.00001
v -179.52 -0.6099997 -80.00001
v -179.52 -0.6099997 80.00001
v -179.52 -0.6099997 -80.00001
v -179.52 19.39 -80.00001
v -179.52 19.39 80.00001
v -179.52 -0.6099997 80.00001
v -169.52 -0.6099997 80.00001
v -169.52 19.39 80.00001
v -169.52 19.39 -80.00001
v -169.52 -0.6099997 -80.00001

vn 0 0 1
vn 0 0 1
vn 0 0 1
vn 0 0 1
vn 0 -1 0
vn 0 -1 0
vn 0 0 -1
vn 0 0 -1
vn 0 -1 0
vn 0 -1 0
vn 0 0 -1
vn 0 0 -1
vn 0 1 0
vn 0 1 0
vn 0 1 0
vn 0 1 0
vn 1 0 0
vn 1 0 0
vn 1 0 0
vn 1 0 0
vn -1 0 0
vn -1 0 0
vn -1 0 0
vn -1 0 0

vt 0 0
vt 1 0
vt 0 1
vt 1 1
vt 0 1
vt 1 1
vt 0 1
vt 1 1
vt 0 0
vt 1 0
vt 0 0
vt 1 0
vt 0 0
vt 0 1
vt 1 1
vt 1 0
vt 0 0
vt 0 1
vt 1 1
vt 1 0
vt 0 0
vt 0 1
vt 1 1
vt 1 0

usemtl Default-Material
usemap Default-Material
f 241/241/241 243/243/243 244/244/244
f 241/241/241 244/244/244 242/242/242
f 249/249/249 245/245/245 246/246/246
f 249/249/249 246/246/246 250/250/250
f 251/251/251 247/247/247 248/248/248
f 251/251/251 248/248/248 252/252/252
f 253/253/253 254/254/254 255/255/255
f 253/253/253 255/255/255 256/256/256
f 257/257/257 258/258/258 259/259/259
f 257/257/257 259/259/259 260/260/260
f 261/261/261 262/262/262 263/263/263
f 261/261/261 263/263/263 264/264/264
#Cube (3)
#-------
g Cube (3)
v 175 -0.6000004 69.52
v -175 -0.6000004 69.52
v 175 19.4 69.52
v -175 19.4 69.52
v 175 19.4 79.52
v -175 19.4 79.52
v 175 -0.6000004 79.52
v -175 -0.6000004 79.52
v 175 19.4 69.52
v -175 19.4 69.52
v 175 19.4 79.52
v -175 19.4 79.52
v 175 -0.6000004 79.52
v 175 -0.6000004 69.52
v -175 -0.6000004 69.52
v -175 -0.6000004 79.52
v -175 -0.6000004 69.52
v -175 19.4 69.52
v -175 19.4 79.52
v -175 -0.6000004 79.52
v 175 -0.6000004 79.52
v 175 19.4 79.52
v 175 19.4 69.52
v 175 -0.6000004 69.52

vn 0 0 1
vn 0 0 1
vn 0 0 1
vn 0 0 1
vn 0 -1 0
vn 0 -1 0
vn 0 0 -1
vn 0 0 -1
vn 0 -1 0
vn 0 -1 0
vn 0 0 -1
vn 0 0 -1
vn 0 1 0
vn 0 1 0
vn 0 1 0
vn 0 1 0
vn 1 0 0
vn 1 0 0
vn 1 0 0
vn 1 0 0
vn -1 0 0
vn -1 0 0
vn -1 0 0
vn -1 0 0

vt 0 0
vt 1 0
vt 0 1
vt 1 1
vt 0 1
vt 1 1
vt 0 1
vt 1 1
vt 0 0
vt 1 0
vt 0 0
vt 1 0
vt 0 0
vt 0 1
vt 1 1
vt 1 0
vt 0 0
vt 0 1
vt 1 1
vt 1 0
vt 0 0
vt 0 1
vt 1 1
vt 1 0

usemtl Default-Material
usemap Default-Material
f 265/265/265 267/267/267 268/268/268
f 265/265/265 268/268/268 266/266/266
f 273/273/273 269/269/269 270/270/270
f 273/273/273 270/270/270 274/274/274
f 275/275/275 271/271/271 272/272/272
f 275/275/275 272/272/272 276/276/276
f 277/277/277 278/278/278 279/279/279
f 277/277/277 279/279/279 280/280/280
f 281/281/281 282/282/282 283/283/283
f 281/281/281 283/283/283 284/284/284
f 285/285/285 286/286/286 287/287/287
f 285/285/285 287/287/287 288/288/288
#Cube (4)
#-------
g Cube (4)
v 175 -0.6000004 -79.52
v -175 -0.6000004 -79.52
v 175 19.4 -79.52
v -175 19.4 -79.52
v 175 19.4 -69.52
v -175 19.4 -69.52
v 175 -0.6000004 -69.52
v -175 -0.6000004 -69.52
v 175 19.4 -79.52
v -175 19.4 -79.52
v 175 19.4 -69.52
v -175 19.4 -69.52
v 175 -0.6000004 -69.52
v 175 -0.6000004 -79.52
v -175 -0.6000004 -79.52
v -175 -0.6000004 -69.52
v -175 -0.6000004 -79.52
v -175 19.4 -79.52
v -175 19.4 -69.52
v -175 -0.6000004 -69.52
v 175 -0.6000004 -69.52
v 175 19.4 -69.52
v 175 19.4 -79.52
v 175 -0.6000004 -79.52

vn 0 0 1
vn 0 0 1
vn 0 0 1
vn 0 0 1
vn 0 -1 0
vn 0 -1 0
vn 0 0 -1
vn 0 0 -1
vn 0 -1 0
vn 0 -1 0
vn 0 0 -1
vn 0 0 -1
vn 0 1 0
vn 0 1 0
vn 0 1 0
vn 0 1 0
vn 1 0 0
vn 1 0 0
vn 1 0 0
vn 1 0 0
vn -1 0 0
vn -1 0 0
vn -1 0 0
vn -1 0 0

vt 0 0
vt 1 0
vt 0 1
vt 1 1
vt 0 1
vt 1 1
vt 0 1
vt 1 1
vt 0 0
vt 1 0
vt 0 0
vt 1 0
vt 0 0
vt 0 1
vt 1 1
vt 1 0
vt 0 0
vt 0 1
vt 1 1
vt 1 0
vt 0 0
vt 0 1
vt 1 1
vt 1 0

usemtl Default-Material
usemap Default-Material
f 289/289/289 291/291/291 292/292/292
f 289/289/289 292/292/292 290/290/290
f 297/297/297 293/293/293 294/294/294
f 297/297/297 294/294/294 298/298/298
f 299/299/299 295/295/295 296/296/296
f 299/299/299 296/296/296 300/300/300
f 301/301/301 302/302/302 303/303/303
f 301/301/301 303/303/303 304/304/304
f 305/305/305 306/306/306 307/307/307
f 305/305/305 307/307/307 308/308/308
f 309/309/309 310/310/310 311/311/311
f 309/309/309 311/311/311 312/312/312
